<?xml version="1.0" encoding="UTF-8" standalone="no"?>
<!-- Created with Inkscape (http://www.inkscape.org/) -->

<svg
   xmlns:dc="http://purl.org/dc/elements/1.1/"
   xmlns:cc="http://creativecommons.org/ns#"
   xmlns:rdf="http://www.w3.org/1999/02/22-rdf-syntax-ns#"
   xmlns:svg="http://www.w3.org/2000/svg"
   xmlns="http://www.w3.org/2000/svg"
   xmlns:sodipodi="http://sodipodi.sourceforge.net/DTD/sodipodi-0.dtd"
   xmlns:inkscape="http://www.inkscape.org/namespaces/inkscape"
   width="1080"
   height="1080"
   viewBox="0 0 285.74999 285.75001"
   version="1.1"
   id="svg8"
   inkscape:version="0.92.3 (2405546, 2018-03-11)"
   sodipodi:docname="christmasdivorce_insta.svg">
  <defs
     id="defs2">
    <clipPath
       id="clipPath871"
       clipPathUnits="userSpaceOnUse">
      <path
         inkscape:connector-curvature="0"
         id="path869"
         d="M 38.7,71.99 H 498.52 V 481.07 H 38.7 Z" />
    </clipPath>
    <clipPath
       id="clipPath1471"
       clipPathUnits="userSpaceOnUse">
      <path
         inkscape:connector-curvature="0"
         id="path1469"
         d="M 56.47,71.99 H 498.52 V 481.07 H 56.47 Z" />
    </clipPath>
  </defs>
  <sodipodi:namedview
     id="base"
     pagecolor="#ffffff"
     bordercolor="#666666"
     borderopacity="1.0"
     inkscape:pageopacity="0.0"
     inkscape:pageshadow="2"
     inkscape:zoom="0.35355339"
     inkscape:cx="2083.2046"
     inkscape:cy="307.66806"
     inkscape:document-units="mm"
     inkscape:current-layer="g1465"
     showgrid="false"
     units="px"
     inkscape:window-width="3200"
     inkscape:window-height="1708"
     inkscape:window-x="-12"
     inkscape:window-y="-12"
     inkscape:window-maximized="1" />
  <metadata
     id="metadata5">
    <rdf:RDF>
      <cc:Work
         rdf:about="">
        <dc:format>image/svg+xml</dc:format>
        <dc:type
           rdf:resource="http://purl.org/dc/dcmitype/StillImage" />
        <dc:title></dc:title>
      </cc:Work>
    </rdf:RDF>
  </metadata>
  <g
     inkscape:label="Layer 1"
     inkscape:groupmode="layer"
     id="layer1"
     transform="translate(0,-11.249983)">
    <g
       transform="matrix(0.51442439,0,0,-0.51442439,166.69838,283.75995)"
       inkscape:label="LastChristmasSpuriousCorrelations"
       id="g823">
      <g
         transform="matrix(0,-1.5984319,1.5984319,0,284.49908,335.61402)"
         id="g1031-3-5-5"
         style="fill:#f8766d;fill-opacity:1">
        <text
           id="text1035-9-7-9"
           style="font-variant:normal;font-weight:normal;font-size:11px;font-family:Helvetica;-inkscape-font-specification:Helvetica;writing-mode:lr-tb;fill:#f8766d;fill-opacity:1;fill-rule:nonzero;stroke:none"
           transform="matrix(0,1,1,0,13.38,239.23)">
          <tspan
             id="tspan1033-2-2-1"
             sodipodi:role="line"
             style="font-style:normal;font-variant:normal;font-weight:normal;font-stretch:normal;font-size:24.68778801px;font-family:'Baskerville Old Face';-inkscape-font-specification:'Baskerville Old Face';fill:#f8766d;fill-opacity:1"
             x="0"
             y="9.9082985" />
        </text>
        <g
           transform="matrix(0,0.68577186,-0.68577186,0,156.10465,93.712419)"
           inkscape:label="LastChristmasSpuriousCorrelations"
           id="g1423">
          <g
             id="g1425" />
          <g
             id="g1427" />
          <g
             id="g1429" />
          <g
             id="g1431" />
          <g
             id="g1433" />
          <g
             id="g1435" />
          <g
             id="g1437" />
          <g
             id="g1439" />
          <g
             id="g1441" />
          <g
             id="g1443" />
          <g
             id="g1445" />
          <g
             id="g1447" />
          <g
             id="g1449" />
          <g
             id="g1451" />
          <g
             id="g1453" />
          <g
             id="g1455" />
          <g
             id="g1457" />
          <g
             id="g1463" />
          <g
             id="g1465">
            <path
               inkscape:connector-curvature="0"
               id="path1507-9"
               style="fill:none;fill-opacity:1;stroke:#f8766d;stroke-width:1.07000005;stroke-linecap:butt;stroke-linejoin:round;stroke-miterlimit:10;stroke-dasharray:none;stroke-opacity:1"
               d="m -646.50311,21.577868 2.68,1.560001 2.68,4.120001 2.68,2.409998 2.68,2.910002 2.68,0.819999 2.67,1.209999 2.68,10.029998 2.68,2.34 2.68,-2.93 2.68,14.890001 2.68,0.94 2.68,-1.21 2.68,1.17 2.68,-5.4 2.68,1.07 2.68,1.98 2.67,-12.810001 2.68,7.04 2.68,-5.61 2.68,2.75 2.68,2.92 2.68,-0.86999 2.68,0.21999 2.68,-0.87999 2.68,-0.81001 2.68,5.350001 2.68,-4.490001 2.68,0.16 2.67,-6.48 2.68,-0.83 2.68,-0.889996 2.68,-3.890003 2.68,-0.379999 2.68,3.480003 2.68,5.440005 2.68,10.329991 2.68,5.02 2.68,4.03 2.68,1.76 2.67,1.02 2.68,4.94 2.68,-1.47 2.68,-1.36 2.68,3.58 2.68,6.15 2.68,9.65 2.68,2.59 2.68,1.08 2.68,1.88 2.68,5.730013 2.67,0.74 2.68,-5.020013 2.68,-1.42 2.68,7.120003 2.68,3.1 2.68,0.36 2.68,10.56 2.68,8.88 2.68,11.14 2.68,3.43 2.68,2.92 2.68,5.82001 2.67,4.23999 2.68,1.32 2.68,5.77 2.68,4.2 2.68,3.63 2.68,6.57001 2.68,7.92999 2.68,5.91 2.68,1.27 2.68,-1.45 2.68,1.93001 2.67,1.57999 2.68,-3.96 2.68,-0.37 2.68,1.68001 2.68,-2.02001 2.68,4.81 2.68,-1.74 2.68,7.18 2.68,6.24001 2.68,-3.17001 2.68,3.12 2.67,1.12001 2.68,-6.70001 2.68,-3.14 2.68,-2.89999 2.68,-2.57001 2.68,2.1 2.68,-1.94 2.68,0.23 2.68,3.9 2.68,6.3 2.68,2.26 2.68,6.93 2.67,5.62 2.68,3.81001 2.68,11.75 2.68,-0.04 2.68,4.62 2.68,0.32 2.68,1.88 2.68,-2.45 2.68,6.04 2.68,-5.96 2.68,8.25 2.67,2.75 2.68,11.76 2.68,7.15 2.68,7.3 2.68,4.68 2.68,8.83 2.68,5.61 2.68,5.27 2.68,-0.15 2.68,-2.51 2.68,2.25 2.67,-0.67 2.68,0.57 2.68,-3.01 2.68,-3.22 2.68,1.24 2.68,0.91 2.68,1.37 2.68,2.93 2.68,0.37 2.68,9.95 2.68,8.31 2.67,1.41 2.68,15.74 2.68,4.66 2.68,3.91 2.68,3.72 2.68,-0.68 2.68,-5.25 2.68,3.81 2.68,-11.94 2.68,-2.96 2.68,-2.64 2.68,12.76 2.67,0.08 2.68,5.06 2.68,3.81 2.68,-2.16 2.68,-1.12 2.68,-5.42 2.68,-13.06 2.68,-5.01 2.68,-4"
               inkscape:transform-center-x="-32.229737"
               inkscape:transform-center-y="7.4288041" />
            <path
               inkscape:connector-curvature="0"
               id="path1509-3"
               style="fill:none;fill-opacity:1;stroke:#00bfc4;stroke-width:1.07000005;stroke-linecap:butt;stroke-linejoin:round;stroke-miterlimit:10;stroke-dasharray:none;stroke-opacity:1"
               d="m -644.99774,-40.258253 2.68,4.24 2.68,-2.97 2.68,24.059991 2.68,-0.12 2.68,0.25001 2.67,-4.93 2.68,-0.59 2.68,3.17 2.68,0.22 2.68,-24.780001 2.68,3.02999 2.68,-0.89999 2.68,2.11 2.68,-4.29 2.68,-5.78 2.68,2.99999 2.67,20.690011 2.68,2.46 2.68,4.71 2.68,1.2 2.68,4.97 2.68,6.2199892 2.68,32.7900098 2.68,-12.99 2.68,-1.33 2.68,0.93 2.68,-1.85 2.68,2.75 2.67,-4.9 2.68,-35.169999 2.68,-7.640001 2.68,-4.89 2.68,0.94 2.68,-1.33 2.68,-0.93 2.68,3.94 2.68,13.670001 2.68,7.16 2.68,4.7199996 2.67,1.46 2.68,1.99 2.68,10.8999996 2.68,-4.21 2.68,-9.5799996 2.68,2.08 2.68,-0.31 2.68,-1.06 2.68,18.1399994 2.68,-8.7299998 2.68,0.7 2.67,1.19 2.68,-8.41 2.68,0.9 2.68,-0.60001 2.68,-10.7199992 2.68,-1.69 2.68,0.72001 2.68,1.95 2.68,2.22 2.68,3.2399996 2.68,10.7999896 2.68,4.26001 2.67,-1.16 2.68,-0.57 2.68,2.9 2.68,9.3099998 2.68,7.76 2.68,-13.56 2.68,-4.2699998 2.68,8.5499998 2.68,1.8 2.68,-3.03 2.68,-9.8999998 2.67,-10.1499996 2.68,7.7699896 2.68,0.82 2.68,-2.31998999 2.68,10.13999979 2.68,7.16 2.68,3.55 2.68,4.49 2.68,1.14999 2.68,-1.9 2.68,-1.12999 2.67,-11.44 2.68,2.38 2.68,1.39 2.68,5.61 2.68,-3.16001 2.68,-2.20999 2.68,-0.85 2.68,12.68 2.68,-6.74 2.68,-0.54 2.68,0.74 2.68,-0.53 2.67,2.49 2.68,7.11 2.68,-7.44 2.68,-3.12 2.68,11.52 2.68,-3.9 2.68,9.81 2.68,1.2 2.68,-3.51 2.68,3.72 2.68,12.04 2.67,-1.17001 2.68,3.94001 2.68,1.8 2.68,6.83 2.68,5.97 2.68,0.2 2.68,-4.83 2.68,-7.92 2.68,-4.72 2.68,-5.24 2.68,1.48 2.67,-1.84001 2.68,-2.10999 2.68,-1.47 2.68,6.57 2.68,3.68 2.68,5.86 2.68,3.95 2.68,4.75999 2.68,10.95001 2.68,14.719997 2.68,5.65 2.67,3.819996 2.68,12.22 2.68,-1.78 2.68,-0.28 2.68,-5.98 2.68,9.2 2.68,12.1 2.68,-2.38 2.68,-11.28 2.68,6.27 2.68,-5.24 2.68,-3.6 2.67,-5.02 2.68,-17.329996 2.68,8.28 2.68,-2.3 2.68,-11.139997 2.68,6.729997 2.68,8.74 2.68,-14.489997 2.68,3.669997" />
          </g>
          <g
             id="g1511" />
          <g
             id="g1513" />
          <g
             id="g1515" />
          <g
             id="g1517" />
          <g
             id="g1519" />
          <g
             id="g1521" />
          <g
             id="g1523" />
          <g
             id="g1525" />
          <g
             id="g1527" />
          <g
             id="g1529" />
          <g
             id="g1531" />
          <g
             id="g1533" />
          <g
             id="g1535" />
          <g
             id="g1537" />
          <g
             id="g1539" />
          <g
             id="g1563" />
          <g
             id="g1577" />
          <g
             id="g1579" />
          <g
             id="g1581" />
          <g
             id="g1583" />
          <g
             id="g1585" />
          <g
             id="g1587" />
          <g
             id="g1589" />
          <g
             id="g1591" />
          <g
             id="g1593" />
          <g
             id="g1605" />
          <g
             id="g1625" />
          <g
             id="g1627" />
          <g
             id="g1629" />
          <g
             id="g1631" />
          <g
             id="g1633" />
          <g
             id="g1641" />
          <g
             id="g1649" />
          <g
             id="g1651" />
          <g
             id="g1653" />
          <g
             id="g1655" />
          <g
             id="g1657" />
          <g
             id="g1659" />
          <g
             id="g1661" />
          <g
             id="g1667" />
          <g
             id="g1669" />
          <g
             id="g1671" />
          <g
             id="g1679" />
          <g
             id="g1681" />
          <g
             id="g1687" />
          <g
             id="g1693" />
          <g
             id="g1699" />
          <g
             id="g1705" />
          <g
             id="g1707" />
          <g
             id="g1709" />
          <g
             id="g1717" />
          <g
             id="g1719" />
          <g
             id="g1721" />
          <g
             id="g1723" />
          <g
             id="g1731" />
          <g
             id="g1733" />
          <g
             id="g1735" />
          <g
             id="g1737" />
          <g
             id="g1739" />
          <g
             id="g1741" />
          <g
             id="g1743">
            <text
               id="text1747"
               style="font-variant:normal;font-weight:normal;font-size:13px;font-family:Helvetica;-inkscape-font-specification:Helvetica;writing-mode:lr-tb;fill:#000000;fill-opacity:1;fill-rule:nonzero;stroke:none"
               transform="matrix(1,0,0,-1,56.47,489.19)">
              <tspan
                 id="tspan1745"
                 sodipodi:role="line"
                 x="0"
                 y="11.709807" />
            </text>
          </g>
          <g
             id="g1749" />
          <g
             id="g1751" />
          <g
             id="g1753" />
          <g
             id="g1755" />
          <g
             id="g1757" />
          <g
             id="g1759" />
        </g>
      </g>
      <g
         id="g825" />
      <g
         id="g827" />
      <g
         id="g829" />
      <g
         id="g831" />
      <g
         id="g833" />
      <g
         id="g835" />
      <g
         id="g837" />
      <g
         id="g839" />
      <g
         id="g841" />
      <g
         id="g843" />
      <g
         id="g845" />
      <g
         id="g847" />
      <g
         id="g849" />
      <g
         id="g851" />
      <g
         id="g853" />
      <g
         id="g855" />
      <g
         id="g857" />
      <g
         id="g863" />
      <g
         id="g909" />
      <g
         id="g911" />
      <g
         id="g913" />
      <g
         id="g915" />
      <g
         id="g917" />
      <g
         id="g919" />
      <g
         id="g921" />
      <g
         id="g923" />
      <g
         id="g925" />
      <g
         id="g927" />
      <g
         id="g929" />
      <g
         id="g931" />
      <g
         id="g933" />
      <g
         id="g935" />
      <g
         id="g937" />
      <g
         id="g957" />
      <g
         id="g969" />
      <g
         id="g971" />
      <g
         id="g973" />
      <g
         id="g975" />
      <g
         id="g977" />
      <g
         id="g979" />
      <g
         id="g981" />
      <g
         id="g983" />
      <g
         id="g985" />
      <g
         id="g997" />
      <g
         id="g1017" />
      <g
         id="g1019" />
      <g
         id="g1021" />
      <g
         id="g1023" />
      <g
         id="g1025" />
      <g
         id="g1027" />
      <g
         id="g1029" />
      <g
         id="g1037" />
      <g
         id="g1039" />
      <g
         id="g1041" />
      <g
         id="g1043" />
      <g
         id="g1045" />
      <g
         id="g1047" />
      <g
         id="g1049" />
      <g
         id="g1055" />
      <g
         id="g1057" />
      <g
         id="g1059" />
      <g
         id="g1061" />
      <g
         id="g1067" />
      <g
         id="g1069" />
      <g
         id="g1075" />
      <g
         id="g1081" />
      <g
         id="g1087" />
      <g
         id="g1093" />
      <g
         id="g1099" />
      <g
         id="g1105" />
      <g
         id="g1107" />
      <g
         id="g1109" />
      <g
         id="g1117" />
      <g
         id="g1119" />
      <g
         id="g1121" />
      <g
         id="g1123" />
      <g
         id="g1131" />
      <g
         id="g1133" />
      <g
         id="g1135" />
      <g
         id="g1137" />
      <g
         id="g1139" />
      <g
         id="g1141" />
      <g
         id="g1149" />
      <g
         id="g1151" />
      <g
         id="g1153" />
      <g
         id="g1155" />
      <g
         id="g1157" />
      <g
         id="g1159" />
      <g
         id="g1031-8-0"
         transform="rotate(-90,-141.27345,532.783)">
        <text
           id="text1035-3-88"
           style="font-variant:normal;font-weight:normal;font-size:11px;font-family:Helvetica;-inkscape-font-specification:Helvetica;writing-mode:lr-tb;fill:#000000;fill-opacity:1;fill-rule:nonzero;stroke:none"
           transform="matrix(0,1,1,0,13.38,239.23)">
          <tspan
             id="tspan1033-7-5"
             sodipodi:role="line"
             style="font-style:normal;font-variant:normal;font-weight:normal;font-stretch:normal;font-size:24.68778801px;font-family:'Baskerville Old Face';-inkscape-font-specification:'Baskerville Old Face'"
             x="0"
             y="9.9082985" />
        </text>
        <text
           xml:space="preserve"
           style="font-style:normal;font-weight:normal;font-size:20.57315636px;line-height:1.25;font-family:sans-serif;letter-spacing:0px;word-spacing:0px;fill:#f8766d;fill-opacity:1;stroke:none;stroke-width:0.5143289"
           x="395.57443"
           y="-43.149563"
           id="text1332-6-7"
           transform="matrix(0,1,1,0,0,0)"><tspan
             sodipodi:role="line"
             id="tspan1330-65-62"
             x="395.57443"
             y="-43.149563"
             style="font-style:normal;font-variant:normal;font-weight:normal;font-stretch:normal;font-size:49.37557602px;font-family:'Baskerville Old Face';-inkscape-font-specification:'Baskerville Old Face';fill:#f8766d;fill-opacity:1;stroke-width:0.5143289">Last Christmas</tspan><tspan
             sodipodi:role="line"
             x="395.57443"
             y="18.569908"
             style="font-style:normal;font-variant:normal;font-weight:normal;font-stretch:normal;font-size:49.37557602px;font-family:'Baskerville Old Face';-inkscape-font-specification:'Baskerville Old Face';fill:#f8766d;fill-opacity:1;stroke-width:0.5143289"
             id="tspan2015">I gave You </tspan><tspan
             sodipodi:role="line"
             x="395.57443"
             y="80.289375"
             style="font-style:normal;font-variant:normal;font-weight:normal;font-stretch:normal;font-size:49.37557602px;font-family:'Baskerville Old Face';-inkscape-font-specification:'Baskerville Old Face';fill:#f8766d;fill-opacity:1;stroke-width:0.5143289"
             id="tspan2023">My Heart</tspan><tspan
             sodipodi:role="line"
             x="395.57443"
             y="142.00885"
             style="font-style:normal;font-variant:normal;font-weight:normal;font-stretch:normal;font-size:49.37557602px;font-family:'Baskerville Old Face';-inkscape-font-specification:'Baskerville Old Face';fill:#f8766d;fill-opacity:1;stroke-width:0.5143289"
             id="tspan2017">But The Very </tspan><tspan
             sodipodi:role="line"
             x="395.57443"
             y="203.72832"
             style="font-style:normal;font-variant:normal;font-weight:normal;font-stretch:normal;font-size:49.37557602px;font-family:'Baskerville Old Face';-inkscape-font-specification:'Baskerville Old Face';fill:#f8766d;fill-opacity:1;stroke-width:0.5143289"
             id="tspan2021">Next Day</tspan><tspan
             sodipodi:role="line"
             x="395.57443"
             y="238.85663"
             style="font-style:normal;font-variant:normal;font-weight:normal;font-stretch:normal;font-size:49.37557602px;font-family:'Baskerville Old Face';-inkscape-font-specification:'Baskerville Old Face';fill:#f8766d;fill-opacity:1;stroke-width:0.5143289"
             id="tspan2025" /></text>
        <text
           xml:space="preserve"
           style="font-style:normal;font-weight:normal;font-size:20.57315636px;line-height:1.25;font-family:sans-serif;letter-spacing:0px;word-spacing:0px;fill:#00bfc4;fill-opacity:1;stroke:none;stroke-width:0.5143289"
           x="396.81204"
           y="267.57739"
           id="text2047"
           transform="matrix(0,1,1,0,0,0)"><tspan
             sodipodi:role="line"
             id="tspan2045"
             x="396.81204"
             y="267.57739"
             style="font-style:normal;font-variant:normal;font-weight:normal;font-stretch:normal;font-size:63.09101105px;font-family:'Baskerville Old Face';-inkscape-font-specification:'Baskerville Old Face';fill:#00bfc4;fill-opacity:1;stroke-width:0.5143289">You Gave </tspan><tspan
             sodipodi:role="line"
             x="396.81204"
             y="346.44116"
             style="font-style:normal;font-variant:normal;font-weight:normal;font-stretch:normal;font-size:63.09101105px;font-family:'Baskerville Old Face';-inkscape-font-specification:'Baskerville Old Face';fill:#00bfc4;fill-opacity:1;stroke-width:0.5143289"
             id="tspan2049">It Away</tspan></text>
      </g>
      <flowRoot
         xml:space="preserve"
         id="flowRoot2027"
         style="font-style:normal;font-weight:normal;font-size:40px;line-height:1.25;font-family:sans-serif;letter-spacing:0px;word-spacing:0px;fill:#000000;fill-opacity:1;stroke:none"><flowRegion
           id="flowRegion2029"><rect
             id="rect2031"
             width="1232"
             height="951"
             x="676"
             y="-57.999996" /></flowRegion><flowPara
           id="flowPara2033" /></flowRoot>      <flowRoot
         xml:space="preserve"
         id="flowRoot2035"
         style="font-style:normal;font-weight:normal;font-size:40px;line-height:1.25;font-family:sans-serif;letter-spacing:0px;word-spacing:0px;fill:#000000;fill-opacity:1;stroke:none"><flowRegion
           id="flowRegion2037"><rect
             id="rect2039"
             width="790"
             height="613"
             x="1193"
             y="577" /></flowRegion><flowPara
           id="flowPara2041" /></flowRoot>    </g>
  </g>
</svg>
